<svg width="58.007" height="58.007" xmlns="http://www.w3.org/2000/svg">

 <g>
  <title>background</title>
  <rect fill="none" id="canvas_background" height="402" width="582" y="-1" x="-1"/>
 </g>
 <g>
  <title>Layer 1</title>
  <g id="XMLID_22_">
   <path fill="#FCC62D" d="m52.232883,29.211l0,1.237999c0,6.932001 -11.640999,12.551001 -25.999998,12.551001c-7.926001,0 -15.019,-1.714001 -19.788,-4.414001c1.608,6.245003 12.535999,11.414001 25.787998,11.414001c14.359001,0 26,-6.068001 26,-13c0,-3.048 -2.255997,-5.733999 -6,-7.789" id="XMLID_143_"/>
   <path fill="#E4AF18" d="m32.232883,50c-14.358999,0 -25.999999,-6.068001 -25.999999,-13l0,8.448002c0,6.931999 11.640999,12.551998 25.999999,12.551998s26,-5.619999 26,-12.551998l0,-8.448002c0,6.931999 -11.640999,13 -26,13" id="XMLID_142_"/>
   <path fill="#CE9912" d="m9.232885,51.348999c0.59,0.539001 1.259,1.055 2,1.545002l0,-8.291c-0.741,-0.510002 -1.41,-1.045002 -2,-1.603001l0,8.348999z" id="XMLID_141_"/>
   <path fill="#CE9912" d="m53.232883,44.603001l0,8.291c0.741001,-0.489002 1.41,-1.006001 2,-1.545002l0,-8.348999c-0.588997,0.557999 -1.257999,1.092999 -2,1.603001" id="XMLID_140_"/>
   <path fill="#CE9912" d="m13.232885,54.060001c0.632,0.327 1.3,0.635998 2,0.928997l0,-8.192997c-0.7,-0.308002 -1.368,-0.633003 -2,-0.975002l0,8.239002z" id="XMLID_139_"/>
   <path fill="#CE9912" d="m49.232883,54.987999c0.700001,-0.292 1.368,-0.601997 2,-0.929001l0,-8.238998c-0.632,0.341999 -1.299999,0.667999 -2,0.974998l0,8.193001z" id="XMLID_138_"/>
   <path fill="#CE9912" d="m17.232885,55.744999c0.646,0.221001 1.313,0.427002 2,0.618999l0,-8.113998c-0.687,-0.203999 -1.354,-0.423 -2,-0.655998l0,8.150997z" id="XMLID_137_"/>
   <path fill="#CE9912" d="m45.232883,56.363998c0.687,-0.191998 1.354,-0.397999 2,-0.618999l0,-8.150997c-0.646,0.232998 -1.313,0.452 -2,0.655998l0,8.113998z" id="XMLID_136_"/>
   <path fill="#CE9912" d="m22.232885,57.084c0.653,0.132 1.320999,0.25 2,0.355l0,-8.043999c-0.679001,-0.112999 -1.347,-0.239002 -2,-0.379002l0,8.068001z" id="XMLID_135_"/>
   <path fill="#CE9912" d="m40.232883,57.438999c0.679001,-0.105999 1.347,-0.223999 2,-0.355l0,-8.069c-0.653,0.139999 -1.320999,0.265999 -2,0.380001l0,8.043999z" id="XMLID_134_"/>
   <path fill="#CE9912" d="m28.232885,57.898998c0.657999,0.049004 1.326,0.083 2,0.107002l0,-8.003002c-0.674,-0.025997 -1.342001,-0.061996 -2,-0.114998l0,8.010998z" id="XMLID_133_"/>
   <path fill="#CE9912" d="m34.232883,58.007c0.674,-0.025002 1.342003,-0.057999 2,-0.106998l0,-8.012001c-0.657997,0.053001 -1.326,0.089001 -2,0.116001l0,8.002998z" id="XMLID_132_"/>
   <path fill="#E4AF18" d="m26.232885,34.993c-14.359,0 -26,-6.068001 -26,-13l0,8.448c0,6.932001 11.641,12.552 26,12.552s25.999998,-5.619999 25.999998,-12.552l0,-8.448c0,6.931999 -11.640999,13 -25.999998,13" id="XMLID_131_"/>
   <path fill="#CE9912" d="m3.232885,36.341999c0.59,0.539001 1.259,1.055 2,1.545002l0,-8.291c-0.741,-0.51 -1.41,-1.045 -2,-1.602001l0,8.348z" id="XMLID_130_"/>
   <path fill="#CE9912" d="m47.232883,29.596001l0,8.291c0.741001,-0.489002 1.41,-1.006001 2,-1.545002l0,-8.348999c-0.588997,0.558001 -1.257999,1.093 -2,1.603001" id="XMLID_129_"/>
   <path fill="#CE9912" d="m7.232885,39.053001c0.632,0.327 1.300001,0.635998 2,0.928997l0,-8.192999c-0.7,-0.307999 -1.368,-0.632999 -2,-0.975l0,8.239002z" id="XMLID_128_"/>
   <path fill="#CE9912" d="m43.232883,39.980999c0.700001,-0.292 1.368,-0.600998 2,-0.929001l0,-8.238998c-0.632,0.342001 -1.299999,0.668001 -2,0.975l0,8.192999z" id="XMLID_127_"/>
   <path fill="#CE9912" d="m11.232885,40.737999c0.646,0.221001 1.313,0.427002 2,0.618999l0,-8.113998c-0.687,-0.203999 -1.354,-0.423 -2,-0.655998l0,8.150997z" id="XMLID_126_"/>
   <path fill="#CE9912" d="m39.232883,41.356998c0.687,-0.191998 1.354,-0.397999 2,-0.618999l0,-8.150997c-0.646,0.232998 -1.313,0.452 -2,0.655998l0,8.113998z" id="XMLID_125_"/>
   <path fill="#CE9912" d="m16.232885,42.077c0.653,0.132 1.320999,0.25 2,0.355l0,-8.043999c-0.679001,-0.112999 -1.347,-0.239002 -2,-0.379002l0,8.068001z" id="XMLID_124_"/>
   <path fill="#CE9912" d="m34.232883,42.432999c0.679001,-0.105999 1.347,-0.223999 2,-0.355l0,-8.069c-0.653,0.139999 -1.320999,0.266003 -2,0.380001l0,8.043999z" id="XMLID_123_"/>
   <path fill="#CE9912" d="m22.232885,42.893002c0.657999,0.049 1.326,0.083 2,0.106998l0,-8.002998c-0.674,-0.026001 -1.342001,-0.062 -2,-0.115002l0,8.011002z" id="XMLID_122_"/>
   <path fill="#CE9912" d="m28.232885,43c0.674,-0.025002 1.341999,-0.057999 2,-0.106998l0,-8.012001c-0.658001,0.052998 -1.326,0.089001 -2,0.116001l0,8.002998z" id="XMLID_121_"/>
   <path fill="#FFD949" d="m51.549885,33.301998c-2.676998,5.556004 -12.991001,9.698002 -25.316999,9.698002c-4.604,0 -8.926001,-0.580002 -12.677,-1.592999c3.628,2.462997 10.084999,4.558998 18.676998,4.558998c13.682003,0 22,-5.311001 22,-8.966c0,-1.220001 -0.938999,-2.514 -2.682999,-3.698002" id="XMLID_120_"/>
   <path fill="#FFD949" d="m31.232885,33c-14.359001,0 -26,-5.620001 -26,-12.552l0,-5.652c-3.141,1.969 -5,4.438 -5,7.204c0,6.931999 11.641,13 26,13c6.914,0 13.191999,-1.409 17.849001,-3.642c-3.791,1.043001 -8.174,1.642 -12.849001,1.642" id="XMLID_119_"/>
   <path fill="#E4AF18" d="m31.232885,24.993c-14.359001,0 -26,-6.068001 -26,-13l0,8.448c0,6.931999 11.640999,12.552 26,12.552c14.358999,0 25.999998,-5.620001 25.999998,-12.552l0,-8.448c0,6.931999 -11.640999,13 -25.999998,13" id="XMLID_118_"/>
   <path fill="#CE9912" d="m8.232885,26.341999c0.59,0.539001 1.259,1.055 2,1.545l0,-8.290998c-0.741,-0.51 -1.41,-1.045 -2,-1.602001l0,8.348z" id="XMLID_117_"/>
   <path fill="#CE9912" d="m52.232883,19.596001l0,8.290998c0.741001,-0.488998 1.41,-1.005999 2,-1.545l0,-8.348999c-0.588997,0.558001 -1.257999,1.093 -2,1.603001" id="XMLID_116_"/>
   <path fill="#CE9912" d="m12.232885,29.052999c0.632,0.327 1.3,0.636 2,0.929001l0,-8.193001c-0.7,-0.307999 -1.368,-0.632999 -2,-0.975l0,8.239z" id="XMLID_115_"/>
   <path fill="#CE9912" d="m48.232883,29.981001c0.700001,-0.292002 1.368,-0.601002 2,-0.929001l0,-8.239c-0.632,0.342001 -1.299999,0.668001 -2,0.975l0,8.193001z" id="XMLID_114_"/>
   <path fill="#CE9912" d="m16.232885,30.738001c0.646,0.220999 1.313,0.427 2,0.618999l0,-8.114c-0.687,-0.204 -1.354,-0.423 -2,-0.656l0,8.151001z" id="XMLID_113_"/>
   <path fill="#CE9912" d="m44.232883,31.357c0.687,-0.191999 1.354,-0.398001 2,-0.618999l0,-8.151001c-0.646,0.233 -1.313,0.452 -2,0.656l0,8.114z" id="XMLID_112_"/>
   <path fill="#CE9912" d="m21.232885,32.077c0.653,0.132 1.320999,0.25 2,0.355l0,-8.043999c-0.679001,-0.113001 -1.347,-0.239 -2,-0.379l0,8.067999z" id="XMLID_111_"/>
   <path fill="#CE9912" d="m39.232883,32.432999c0.679001,-0.105999 1.347,-0.223999 2,-0.355l0,-8.068998c-0.653,0.139999 -1.320999,0.265999 -2,0.379999l0,8.043999z" id="XMLID_110_"/>
   <path fill="#CE9912" d="m27.232885,32.893002c0.657999,0.049 1.326,0.083 2,0.106998l0,-8.003c-0.674,-0.025999 -1.342001,-0.062 -2,-0.115l0,8.011002z" id="XMLID_109_"/>
   <path fill="#CE9912" d="m33.232883,33c0.674,-0.025002 1.342003,-0.057999 2,-0.106998l0,-8.012001c-0.657997,0.052999 -1.326,0.088999 -2,0.115999l0,8.003z" id="XMLID_108_"/>
   <path fill="#FCC62D" d="m57.232883,12c0,6.931999 -11.640999,13 -25.999998,13c-14.359001,0 -26,-6.068001 -26,-13c0,-6.932 11.640999,-12 26,-12c14.358999,0 25.999998,5.068 25.999998,12" id="XMLID_107_"/>
   <path fill="#FFD949" d="m31.232885,20.966c-13.682001,0 -22,-5.309999 -22,-8.966c0,-3.655 8.317999,-9 22,-9c13.682001,0 21.999998,5.345 21.999998,9c0,3.656 -8.317997,8.966 -21.999998,8.966" id="XMLID_106_"/>
  </g>
  <g id="svg_1"/>
  <g id="svg_2"/>
  <g id="svg_3"/>
  <g id="svg_4"/>
  <g id="svg_5"/>
  <g id="svg_6"/>
  <g id="svg_7"/>
  <g id="svg_8"/>
  <g id="svg_9"/>
  <g id="svg_10"/>
  <g id="svg_11"/>
  <g id="svg_12"/>
  <g id="svg_13"/>
  <g id="svg_14"/>
  <g id="svg_15"/>
 </g>
</svg>